<svg width="56" height="58" viewBox="0 0 56 58" fill="none" xmlns="http://www.w3.org/2000/svg">
<g clip-path="url(#clip0_542_585)">
<path fill-rule="evenodd" clip-rule="evenodd" d="M10.0694 9.0625C9.18612 4.35 12.7192 0 17.3123 0C21.3754 0 24.7319 3.44375 24.7319 7.6125V17.0375C25.7918 17.0375 26.8517 16.8563 27.9117 16.8563C28.9716 16.8563 29.8549 16.8562 30.9148 17.0375V7.6125C30.9148 3.44375 34.2713 0 38.3344 0C42.9274 0 46.4606 4.35 45.7539 9.0625L43.8107 20.1188C50.7003 23.2 56 28.6375 56 35.3438V39.5125C56 45.1312 52.4669 49.8438 47.3438 52.925C42.2208 56.1875 35.5079 58 27.9117 58C20.3155 58 13.6025 56.1875 8.4795 52.925C3.53312 49.8438 0 45.1312 0 39.5125V35.3438C0 28.6375 5.12303 23.2 12.0126 20.1188L10.0694 9.0625ZM41.1609 21.5687L43.4574 8.51875C43.9874 5.25625 41.6909 2.175 38.3344 2.175C35.5079 2.175 33.2114 4.53125 33.2114 7.43125V19.3937C32.5047 19.2125 31.6215 19.2125 30.9148 19.2125C29.8549 19.2125 28.9716 19.0312 27.9117 19.0312C26.8517 19.0312 25.7918 19.0312 24.7319 19.2125C24.0252 19.2125 23.142 19.3937 22.4353 19.3937V7.6125C22.4353 4.7125 20.1388 2.35625 17.3123 2.35625C14.1325 2.35625 11.6593 5.4375 12.3659 8.7L14.6625 21.75C7.2429 24.65 2.29653 29.725 2.29653 35.525V39.6937C2.29653 48.575 13.7792 55.825 27.9117 55.825C42.0442 55.825 53.5268 48.575 53.5268 39.6937V35.525C53.7035 29.5438 48.7571 24.4688 41.1609 21.5687Z" fill="#633001"/>
<path d="M53.7034 39.5125C53.7034 48.3937 42.2208 55.6438 28.0883 55.6438C13.9558 55.6438 2.47314 48.3937 2.47314 39.5125V35.3438H53.8801V39.5125H53.7034Z" fill="#FEDC90"/>
<path fill-rule="evenodd" clip-rule="evenodd" d="M12.3659 8.70001C11.6593 5.43751 14.1325 2.35626 17.3123 2.35626C20.1388 2.35626 22.4353 4.71251 22.4353 7.61251V19.575C24.2019 19.3938 25.9684 19.2125 27.9116 19.2125C29.6782 19.2125 31.4448 19.3938 33.2113 19.575V7.61251C33.2113 4.71251 35.5078 2.35626 38.3343 2.35626C41.5142 2.35626 43.9873 5.43751 43.4574 8.70001L41.1608 21.75C48.5804 24.65 53.7034 29.725 53.7034 35.525C53.7034 44.4063 42.2208 51.6563 28.0883 51.6563C13.9558 51.6563 2.47314 44.4063 2.47314 35.525C2.47314 29.725 7.41952 24.65 14.8391 21.75L12.3659 8.70001Z" fill="#D1884F"/>
<path d="M20.8454 34.2562C20.8454 36.6125 19.6088 38.6062 18.0189 38.6062C16.429 38.6062 15.1924 36.6125 15.1924 34.2562C15.1924 31.9 16.429 29.9062 18.0189 29.9062C19.6088 29.9062 20.8454 31.9 20.8454 34.2562Z" fill="#633001"/>
<path d="M40.4543 34.2562C40.4543 36.6125 39.2177 38.6062 37.6278 38.6062C36.0379 38.6062 34.8013 36.6125 34.8013 34.2562C34.8013 31.9 36.0379 29.9062 37.6278 29.9062C39.2177 29.9062 40.4543 31.9 40.4543 34.2562Z" fill="#633001"/>
</g>
<defs>
<clipPath id="clip0_542_585">
<rect width="56" height="58" fill="white"/>
</clipPath>
</defs>
</svg>
