<svg width="81" height="19" viewBox="0 0 81 19" fill="none" xmlns="http://www.w3.org/2000/svg">
<path fill-rule="evenodd" clip-rule="evenodd" d="M7.36272 3.8627C6.98631 3.76058 6.59465 3.9615 6.48935 4.30968C6.38215 4.6626 6.59513 5.02741 6.97059 5.13143C7.33985 5.22453 7.72913 5.01933 7.84062 4.66973C7.95021 4.32108 7.73104 3.95675 7.36272 3.8627ZM11.5133 12.9941C6.18012 16.3638 -1.02364 13.7133 1.26914 5.75605C2.65853 1.01698 8.5215 -0.208995 11.954 1.80073C17.9909 5.28866 13.9838 12.5234 11.6938 11.6613C9.01941 10.583 10.1 7.28888 10.1 5.13523C11.6896 4.69158 13.1833 4.66973 13.9614 5.22643C14.5889 5.79833 12.4648 7.06848 11.1969 7.33923C11.1411 7.55678 11.0821 7.75771 11.0234 7.97763C12.9503 7.24993 13.0237 7.98286 10.8148 8.67588C10.7479 8.92066 10.684 9.16626 10.6232 9.41261C12.6415 8.65118 13.371 7.91493 12.6673 7.40668C14.2072 6.58018 14.8805 5.40646 13.9414 4.81983C12.7945 4.21658 11.4375 4.17098 10.06 4.50633C9.85657 3.56488 9.42251 2.86805 8.65682 2.54553C8.11841 2.33795 7.28172 2.51846 6.73378 3.01578C6.73664 3.01578 6.73521 3.01578 4.88936 2.1204C4.89318 2.12373 4.89032 2.11138 5.47447 4.04796C4.84219 4.58993 4.39574 5.43543 4.06745 6.30801C4.04172 6.37071 4.08985 6.38638 4.20563 6.37071C4.70974 5.56986 5.06804 4.77565 5.99573 4.38853C6.06672 4.30018 6.11246 4.1534 6.10341 4.0356C5.39871 2.70893 6.10675 4.0356 5.39156 2.72983C6.65802 3.64325 5.39157 2.73363 6.66184 3.6594C7.68911 2.54363 9.14282 2.96115 9.18713 4.7234C5.88805 5.78598 2.89534 8.77848 2.51082 11.2281C2.44698 11.6613 2.64614 12.141 3.59908 12.0636C5.39252 11.8964 7.22884 10.4947 8.53532 9.01171C8.41858 8.82123 8.30185 8.60938 8.18559 8.42033C5.74987 11.7259 2.88724 12.1595 3.00159 11.4532C3.57192 8.61508 9.22763 5.33615 9.22763 5.33615C9.22763 5.33615 8.48672 11.191 11.3384 12.0066C15.3074 13.0658 18.6327 2.94406 10.5031 0.625105C5.71271 -0.82507 1.24008 2.13038 0.294759 6.2244C-0.871165 11.7297 1.52596 14.6386 5.646 15.466C8.04884 15.9149 10.6666 15.342 12.542 14.193C12.4586 14.1697 11.4851 13.0003 11.5133 12.9941Z" fill="#F48120"/>
<path fill-rule="evenodd" clip-rule="evenodd" d="M19.944 1.20982V0.272175C20.5842 0.228918 21.2204 0.137939 21.847 0V4.07455C21.9428 3.77876 22.1215 3.51651 22.3621 3.31883C22.616 3.09367 22.8462 2.98252 23.0491 2.98252C23.7758 2.94357 24.2484 3.35398 24.4643 4.19188C24.6906 5.0464 24.8145 6.08142 24.8369 7.3283C24.8988 10.7934 24.3256 12.5239 23.1096 12.5239C22.8771 12.4882 22.637 12.3671 22.3892 12.1515C22.1443 11.9434 21.9633 11.7401 21.8465 11.505V14.9692H22.3892V15.8659H20.1188V14.9692H20.6849V11.505C20.5529 11.7467 20.3761 11.9752 20.1446 12.1956C19.9211 12.3875 19.6853 12.5129 19.4351 12.5239C18.687 12.55 18.212 12.0897 18.0033 11.1231C17.7946 10.1721 17.6936 8.98985 17.6936 7.60095C17.7327 4.50633 18.3211 2.9773 19.4599 2.983C19.6929 2.983 19.9325 3.09415 20.1794 3.29032C20.4195 3.4998 20.5915 3.76248 20.6844 4.08738V1.20982H19.944ZM20.6849 6.58255C20.6849 5.0616 20.3976 4.31015 19.8272 4.31918C19.6462 4.31918 19.4742 4.46738 19.3198 4.74478C19.1426 5.03073 19.0496 5.4834 19.0496 6.08095C19.0263 6.81245 19.0115 7.353 19.0115 7.71638C19.0115 8.82882 19.0496 9.7014 19.1268 10.3279C19.2045 10.9549 19.4527 11.2741 19.8658 11.2888C20.4128 11.2888 20.6849 10.725 20.6849 9.62255V6.58255ZM21.847 9.6235C21.847 10.7673 22.1334 11.3449 22.698 11.3449C22.9238 11.3283 23.1096 11.1126 23.265 10.726C23.3646 10.4852 23.4351 10.0933 23.4584 9.54513C23.4808 8.77848 23.4975 8.1909 23.4975 7.76625C23.4975 7.44563 23.4937 7.18342 23.4842 6.98155C23.481 6.7586 23.4724 6.53576 23.4584 6.31323C23.4808 5.56082 23.4012 5.02312 23.2064 4.73432C23.0401 4.46357 22.8538 4.31965 22.6599 4.31965C22.1181 4.31965 21.847 4.89867 21.847 6.0439V9.6235ZM25.4806 7.75485C25.4806 6.5417 25.685 5.44397 26.1119 4.46263C26.5307 3.48175 27.1697 2.98252 28.0225 2.98252C28.8649 2.98252 29.4939 3.44993 29.927 4.38805C30.3544 5.32808 30.564 6.44908 30.564 7.75485C30.564 9.0459 30.351 10.1716 29.917 11.1122C29.4829 12.0527 28.8516 12.5234 28.0221 12.5234C27.1697 12.5124 26.5307 12.0004 26.1119 11.0338C25.685 10.0372 25.4806 8.94805 25.4806 7.75485ZM26.9529 7.75485V9.18032C27.0181 9.93747 27.1077 10.536 27.2235 10.9554C27.3398 11.3511 27.6032 11.5824 28.0001 11.5824C28.4013 11.5824 28.6767 11.3582 28.8259 10.9293C28.9783 10.4847 29.0617 9.90945 29.0913 9.17985C29.1008 8.85542 29.107 8.3828 29.107 7.75438C29.107 7.10078 29.1003 6.62055 29.0913 6.31227C29.0617 5.59835 28.9788 5.01553 28.8259 4.5657C28.6763 4.11303 28.4013 3.90545 27.9997 3.91685C27.6032 3.91685 27.3345 4.1249 27.214 4.5505C27.0953 4.9761 27.0067 5.56273 26.9524 6.31227L26.9529 7.75485ZM33.167 7.98665V11.4223H33.7092V12.2882H31.223V11.4223H31.7738V4.07455H31.223V3.21432H33.7092V4.07455H33.167V6.9749H34.8766V4.07455H34.3134V3.21432H36.8391V4.07455H36.2559V11.4223H36.8387V12.2882H34.3129V11.4223H34.8761V7.98665H33.167ZM41.1088 12.2882H38.6216V11.4223H39.1648V4.1648C38.8503 4.11398 38.6145 4.23178 38.4668 4.50205C38.4172 4.59705 38.3791 4.78325 38.351 5.05495C38.3267 5.41643 38.3033 5.68053 38.3005 5.84963C38.3005 5.9945 38.2924 6.15125 38.2848 6.31323C38.2767 6.4885 38.2652 6.6215 38.2547 6.72743H37.4209V3.21432H42.3095V6.72743H41.4576C41.4576 6.34125 41.449 6.0439 41.4438 5.84963C41.4104 5.48625 41.3875 5.22358 41.3656 5.05495C41.3656 4.8184 41.3261 4.62413 41.2465 4.50205C41.1002 4.23178 40.8682 4.11398 40.5423 4.1648V11.4223H41.1088V12.2882ZM47.7103 11.5211V12.3182C47.4235 12.4455 47.1681 12.5239 46.936 12.5239C46.3524 12.4882 45.9669 12.1553 45.7887 11.5216C45.6476 11.7782 45.4522 12.0011 45.216 12.1747C44.9477 12.3837 44.6966 12.5129 44.4489 12.5239C44.0844 12.5239 43.7475 12.3343 43.4292 11.9752C43.1119 11.6076 42.9456 11.076 42.937 10.3659C42.9222 9.23448 43.2129 8.39943 43.8013 7.84368C44.3855 7.28888 45.0525 6.90128 45.7887 6.68848V4.7728C45.7887 4.2731 45.5795 4.03038 45.1693 4.0109C44.9749 4.0109 44.8277 4.0489 44.7443 4.12585C44.6494 4.20441 44.5856 4.31399 44.5642 4.43508C44.5489 4.4935 44.557 4.62365 44.587 4.82125C44.5966 4.88015 44.6156 4.93762 44.6304 4.98798C44.6542 5.05543 44.6656 5.10008 44.6656 5.1585C44.6895 5.36703 44.6895 5.52235 44.6656 5.61783C44.6213 5.90805 44.5332 6.1123 44.3855 6.26382C44.2473 6.39825 44.092 6.46808 43.9214 6.46808C43.7284 6.44955 43.5655 6.3384 43.4292 6.13653C43.291 5.93085 43.2243 5.63065 43.2243 5.21075C43.2405 4.78373 43.3444 4.4042 43.5455 4.07503C43.7412 3.74138 44.0184 3.46247 44.3512 3.2642C44.6895 3.06327 45.0168 2.9773 45.3237 2.983C45.7353 2.983 46.1537 3.17253 46.5639 3.53543C46.9818 3.91068 47.1833 4.61795 47.1833 5.6563V10.2875C47.1833 10.3816 47.1871 10.4652 47.1952 10.5322C47.2024 10.6015 47.2062 10.7207 47.2062 10.8533C47.2062 11.1131 47.23 11.2836 47.2834 11.3482C47.3744 11.467 47.5164 11.5211 47.7103 11.5211ZM45.7882 7.76625C44.921 8.018 44.4165 8.70865 44.2716 9.85815C44.1849 10.6561 44.3621 11.1126 44.8219 11.191C45.0363 11.1976 45.2512 11.087 45.4666 10.8139C45.6867 10.564 45.7882 10.1408 45.7882 9.56698V7.76625ZM50.2742 7.98665V11.4223H50.8174V12.2882H48.3297V11.4223H48.8724V4.07455H48.3297V3.21432H50.8174V4.07455H50.2742V6.9749H51.9795V4.07455H51.423V3.21432H53.9411V4.07455H53.3589V11.4223H53.9411V12.2882H51.423V11.4223H51.9795V7.98665H50.2742ZM54.5824 12.2882V11.4261H55.1242V4.07455H54.5824V3.21432H57.031V4.07455H56.4869V7.1478C56.8075 7.2105 57.0401 7.12928 57.1644 6.88133C57.294 6.63005 57.3569 6.42533 57.3569 6.26335C57.3871 6.06758 57.4039 5.87001 57.4074 5.67198C57.4146 5.44492 57.4174 5.17703 57.4174 4.88728C57.4732 3.57675 57.9068 2.94357 58.7396 2.98252C59.0708 2.98252 59.3648 3.1331 59.6049 3.44707C59.8455 3.74917 59.967 4.15293 59.9818 4.66688C59.997 5.09248 59.9303 5.40645 59.7936 5.59455C59.6607 5.776 59.5096 5.8767 59.3386 5.8767C59.168 5.8767 59.0169 5.79262 58.8873 5.61735C58.7492 5.44777 58.6834 5.21028 58.6963 4.8982C58.7282 4.68683 58.7539 4.51915 58.7973 4.42415C58.8316 4.3472 58.8588 4.28023 58.8745 4.24128C58.9021 4.18475 58.9021 4.11825 58.8745 4.07408C58.8588 4.00235 58.8106 3.95628 58.7196 3.93205C58.6818 3.92045 58.6413 3.92025 58.6033 3.93149C58.5653 3.94273 58.5316 3.9649 58.5062 3.99522C58.3608 4.07408 58.3008 4.2997 58.3318 4.6664C58.3675 5.47485 58.3399 6.1009 58.2432 6.54408C58.1421 7.00577 57.922 7.32735 57.5732 7.5335C58.6839 7.78573 59.2004 8.62315 59.107 10.0823C59.0784 10.2761 59.0646 10.449 59.0503 10.5702C59.0365 10.7193 59.0451 10.84 59.0665 10.9677C59.0918 11.1117 59.1475 11.2114 59.2414 11.2888C59.3976 11.382 59.5639 11.4252 59.7521 11.4214V12.2873C59.4729 12.444 59.1913 12.5224 58.8945 12.5224C58.5167 12.4868 58.2279 12.2873 58.0287 11.9187C57.8272 11.5653 57.7219 10.9207 57.7109 10.014C57.7109 9.38885 57.6642 8.98843 57.5737 8.76945C57.3641 8.20562 57.0039 7.95435 56.4869 8.02465V11.4252H57.031V12.2873H54.5824V12.2882ZM65.374 11.5211V12.3182C65.1 12.4455 64.8327 12.5239 64.6002 12.5239C64.017 12.4882 63.6282 12.1553 63.4634 11.5216C63.3168 11.7763 63.1196 11.9985 62.884 12.1747C62.6091 12.3837 62.3656 12.5129 62.1231 12.5239C61.7467 12.5239 61.4207 12.3343 61.1025 11.9752C60.7851 11.6076 60.6184 11.076 60.6017 10.3659C60.5869 9.23448 60.8747 8.39943 61.4655 7.84368C62.0516 7.28888 62.7172 6.90128 63.4629 6.68848V4.7728C63.4629 4.2731 63.2394 4.03038 62.8368 4.0109C62.64 4.0109 62.5009 4.0489 62.4075 4.12585C62.3141 4.20328 62.2593 4.31015 62.2279 4.43508C62.2117 4.4935 62.2184 4.62365 62.2522 4.82125C62.2698 4.88015 62.2874 4.93762 62.2922 4.98798C62.3164 5.04161 62.3293 5.09968 62.3298 5.1585C62.3637 5.36703 62.3637 5.52235 62.3298 5.61783C62.2884 5.90805 62.2069 6.1123 62.0525 6.26382C61.9096 6.39825 61.7557 6.46808 61.5846 6.46808C61.4026 6.44955 61.233 6.3384 61.1025 6.13653C60.9543 5.93085 60.888 5.63065 60.888 5.21075C60.8993 4.81147 61.0098 4.42121 61.2097 4.07503C61.4081 3.74198 61.6864 3.46335 62.0197 3.2642C62.3632 3.06327 62.6796 2.9773 62.9936 2.983C63.3943 2.983 63.8169 3.17253 64.24 3.53543C64.646 3.91068 64.8551 4.61795 64.8551 5.6563V10.2875C64.8551 10.3816 64.8618 10.4652 64.8718 10.5322C64.878 10.6015 64.8804 10.7207 64.8804 10.8533C64.8804 11.1131 64.8904 11.2836 64.9585 11.3482C65.0381 11.467 65.1944 11.5211 65.374 11.5211ZM63.4638 7.76625C62.5971 8.018 62.0826 8.70865 61.943 9.85815C61.851 10.6561 62.0392 11.1126 62.4857 11.191C62.7015 11.1976 62.9178 11.087 63.1451 10.8139C63.35 10.564 63.4643 10.1408 63.4643 9.56698L63.4638 7.76625ZM66.1997 11.2694C66.1782 10.9191 66.2668 10.5709 66.4532 10.2733C66.6186 9.975 66.8363 9.82442 67.0493 9.82442C67.2813 9.8059 67.491 9.93747 67.7087 10.2377C67.8969 10.5094 68.0041 10.8371 68.0041 11.191C68.0041 11.5297 67.905 11.8384 67.7121 12.1315C67.5362 12.4094 67.3185 12.5495 67.0831 12.5495C66.8782 12.5495 66.6905 12.4274 66.4952 12.14C66.2993 11.8864 66.2169 11.5829 66.1997 11.2694ZM70.7367 4.2313C70.8566 3.92131 71.0416 3.64048 71.2794 3.40765C71.5457 3.13357 71.7945 3.002 72.0275 2.98252C72.2705 2.96352 72.5806 3.05472 72.8989 3.26372C73.2239 3.48507 73.5264 3.95295 73.7623 4.66688C74.0034 5.39743 74.1315 6.42913 74.1149 7.7938C74.0972 9.54513 73.9052 10.7782 73.5093 11.4665C73.1133 12.1629 72.6269 12.5234 72.0508 12.5234C71.4824 12.4878 71.0288 12.1325 70.7362 11.4665V14.9682H71.2789V15.865H68.8113V14.9682H69.3611V4.2313H68.8275V3.32928C69.167 3.28731 69.5028 3.2195 69.8319 3.12645C69.9534 3.09415 70.0653 3.06755 70.144 3.04903C70.2212 3.01577 70.3036 3.01007 70.3832 3.01007C70.5037 2.9716 70.6185 2.9374 70.7357 2.9051V4.2313H70.7367ZM72.5925 7.6893C72.5925 7.41855 72.5873 7.17155 72.584 6.94308C72.5783 6.72363 72.5687 6.4258 72.5687 6.04343C72.5849 5.36703 72.5144 4.89583 72.36 4.6284C72.1823 4.30968 71.9579 4.1572 71.744 4.19188C71.5605 4.19188 71.3571 4.33913 71.1679 4.6284C70.9687 4.95473 70.8553 5.4359 70.8415 6.0705C70.8058 6.7849 70.7862 7.32783 70.7862 7.68883C70.7862 7.95862 70.7905 8.21845 70.8015 8.44645C70.8105 8.6754 70.8139 8.98415 70.8139 9.33517C70.8491 10.0828 70.9335 10.5792 71.096 10.877C71.2694 11.1905 71.4824 11.3511 71.7163 11.3667C71.9312 11.3667 72.128 11.1905 72.3376 10.8523C72.493 10.5635 72.5682 10.0643 72.5682 9.33517C72.5682 8.98415 72.5783 8.6754 72.5835 8.44645C72.5873 8.21892 72.5925 7.9591 72.5925 7.6893ZM77.98 9.46675L79.0116 4.12585H78.446V3.21432H80.4834V4.12585H80.0731L78.446 11.9629C78.3831 12.2887 78.2678 12.759 78.1129 13.3779C77.8957 14.327 77.6145 14.9919 77.2839 15.3434C76.9275 15.6878 76.5897 15.8574 76.2309 15.8427C75.8854 15.8156 75.5719 15.647 75.3132 15.2893C75.0392 14.9525 74.9125 14.4823 74.9125 13.8866C74.9306 13.4648 75.0187 13.1433 75.1774 12.9248C75.3346 12.7314 75.4962 12.6279 75.6624 12.6279C75.8502 12.6279 76.0174 12.7314 76.1642 12.9248C76.3124 13.1433 76.3862 13.3869 76.3862 13.7094C76.3862 14.0894 76.3319 14.3588 76.2085 14.5288C76.1932 14.5597 76.1642 14.5749 76.1394 14.6053C76.1222 14.639 76.1184 14.6533 76.0994 14.6827C76.0674 14.7454 76.0674 14.8228 76.0994 14.915C76.1608 14.9767 76.2223 15.03 76.2852 15.03C76.3934 15.0385 76.5187 14.9692 76.6735 14.8143C76.8736 14.582 76.9885 14.3773 77.0404 14.1844C77.0785 14.0139 77.1424 13.6957 77.2076 13.2297C77.2539 13.0065 77.301 12.7742 77.3501 12.5272C77.3897 12.2892 77.424 12.094 77.4397 11.9634L75.2503 4.12633H74.7105V3.21432H77.2386V4.12585H76.7526L77.98 9.46675Z" fill="white"/>
<path d="M26.1028 17.9151C26.0113 17.9607 25.8488 17.9901 25.6453 17.9901C24.933 17.9901 24.5256 17.4102 24.5256 16.4521C24.5256 15.2556 25.1598 14.8281 25.7144 14.8281C25.9179 14.8281 26.057 14.8694 26.1213 14.9069L26.0279 15.3216C25.9356 15.2787 25.8343 15.2585 25.7325 15.2627C25.3942 15.2627 25.0488 15.5695 25.0488 16.4198C25.0488 17.2529 25.3628 17.5551 25.7368 17.5551C25.8531 17.5551 25.9693 17.5303 26.0422 17.498L26.1028 17.9151ZM26.9537 17.1532L26.7855 17.965H26.3057L26.9995 14.8571H27.577L28.2202 17.965H27.739L27.5722 17.1532H26.9537ZM27.5207 16.7708L27.3921 16.0545C27.354 15.8517 27.313 15.5657 27.2758 15.3501H27.263C27.228 15.5855 27.1892 15.8204 27.1467 16.0545L27.0076 16.7708H27.5212H27.5207ZM29.0931 14.8571V16.1424H29.8326V14.8571H30.3281V17.965H29.8326V16.5941H29.0931V17.965H28.5985V14.8571H29.0931ZM31.373 14.8571V16.2336H31.423L32 14.8571H32.5427L31.8075 16.2996C32.1544 16.407 32.2692 16.7096 32.3526 17.0867C32.4188 17.3888 32.4689 17.6876 32.5613 17.965H32.071C31.9919 17.7536 31.9462 17.4719 31.8904 17.223C31.8161 16.854 31.7242 16.5941 31.4187 16.5941H31.3735V17.965H30.8875V14.8571H31.373ZM33.2813 15.3088H32.7224V14.8571H34.3409V15.3088H33.7758V17.965H33.2817L33.2813 15.3088ZM35.514 16.1923V16.5566H34.552V16.1923H35.514ZM37.6495 14.8571V17.965H37.155V15.2845H36.4336V17.965H35.94V14.8571H37.6505H37.6495ZM39.4435 16.548H38.704V17.5346H39.5454V17.9645H38.2099V14.8571H39.4897V15.2845H38.7044V16.1377H39.4439L39.4435 16.548ZM40.3078 15.3088H39.7484V14.8571H41.3665V15.3088H40.8019V17.965H40.3078V15.3088ZM42.9474 16.548H42.2079V17.5346H43.0494V17.9645H41.7134V14.8571H42.9936V15.2845H42.2084V16.1377H42.9479L42.9474 16.548ZM43.4653 14.9026C43.6259 14.8651 43.8256 14.8409 44.0476 14.8409C44.3764 14.8409 44.6398 14.9026 44.8242 15.0765C44.991 15.2337 45.0744 15.4741 45.0744 15.7401C45.0744 16.054 44.9867 16.2702 44.8433 16.4364C44.6584 16.6549 44.3573 16.7551 44.0938 16.7551H43.9547V17.9645H43.4653V14.9026ZM43.9542 16.349C43.9914 16.3581 44.0285 16.3581 44.0743 16.3581C44.3983 16.3581 44.5789 16.1377 44.5789 15.7771C44.5789 15.4879 44.4588 15.2428 44.1262 15.2428C44.0614 15.2428 43.9961 15.2513 43.9542 15.267V16.349ZM46.9369 14.8571V15.2798H45.9601V16.0545C46.0398 16.0429 46.1202 16.0373 46.2008 16.0379C46.469 16.0379 46.7058 16.1205 46.8721 16.2706C47.0484 16.4321 47.1542 16.6682 47.1542 16.9713C47.1542 17.2644 47.0651 17.4938 46.9136 17.6633C46.7144 17.8776 46.4047 17.9863 45.9892 17.9863C45.7624 17.9863 45.5904 17.9735 45.4718 17.9564V14.8571H46.9369ZM45.9601 17.576C46.0121 17.5869 46.0621 17.5912 46.1179 17.5912C46.2941 17.5912 46.4276 17.5218 46.5167 17.4102C46.5996 17.3057 46.6453 17.1613 46.6453 17.0041C46.6453 16.8426 46.5943 16.7053 46.5067 16.6022C46.4575 16.5483 46.3975 16.5054 46.3306 16.4761C46.2637 16.4468 46.1914 16.4318 46.1183 16.4321C46.0655 16.4323 46.0129 16.4375 45.9611 16.4478V17.576H45.9601ZM47.7317 14.8571L48.0552 16.0835C48.1052 16.2711 48.1471 16.4483 48.1757 16.5984H48.1943C48.2215 16.4521 48.2491 16.2578 48.282 16.0721L48.5226 14.8571H49.0215L48.6003 16.407C48.4997 16.7756 48.3735 17.2648 48.1943 17.5964C48.0509 17.8495 47.8293 18.0201 47.5797 18.0201C47.4906 18.0201 47.4262 18.011 47.3705 17.9987L47.3896 17.5964C47.4177 17.6011 47.4591 17.6054 47.5139 17.6054C47.7131 17.6054 47.8665 17.3565 47.9208 17.1703C47.9406 17.1123 47.9391 17.0492 47.9165 16.9922L47.1994 14.8571H47.7317ZM49.2802 14.9026C49.4422 14.8651 49.6404 14.8409 49.8624 14.8409C50.1902 14.8409 50.4542 14.9026 50.6391 15.0765C50.8058 15.2337 50.8888 15.4741 50.8888 15.7401C50.8888 16.054 50.8016 16.2702 50.6581 16.4364C50.4733 16.6549 50.1717 16.7551 49.9087 16.7551H49.771V17.9645H49.2807L49.2802 14.9026ZM49.7705 16.349C49.8067 16.3581 49.8439 16.3581 49.891 16.3581C50.2131 16.3581 50.3937 16.1377 50.3937 15.7771C50.3937 15.4879 50.2732 15.2428 49.9411 15.2428C49.8832 15.2414 49.8256 15.2496 49.7705 15.267V16.349ZM52.6269 14.8571V15.2845H51.7812V17.965H51.2861V14.8571H52.6269ZM55.4657 16.369C55.4657 17.5389 55.0541 18.002 54.5037 18.002C53.8848 18.002 53.5751 17.3422 53.5751 16.4065C53.5751 15.4741 53.9267 14.8195 54.55 14.8195C55.2061 14.8195 55.4657 15.533 55.4657 16.369ZM54.0883 16.4108C54.0883 17.0867 54.2174 17.5712 54.5314 17.5712C54.8511 17.5712 54.9526 17.0155 54.9526 16.3908C54.9526 15.8275 54.8597 15.247 54.5271 15.247C54.2169 15.247 54.0883 15.76 54.0883 16.4108ZM56.3753 14.8571V16.1424H57.1162V14.8571H57.6108V17.965H57.1162V16.5941H56.3753V17.965H55.8807V14.8571H56.3753ZM59.7735 14.8571V17.965H59.2785V15.2845H58.7338V16.2122C58.7338 16.967 58.6967 17.6049 58.3222 17.8819C58.2191 17.9624 58.092 18.0063 57.961 18.0068L57.86 17.5916C57.9301 17.5777 57.9953 17.5454 58.0487 17.498C58.2335 17.319 58.2755 16.9414 58.2755 16.2621V14.8571H59.7735ZM60.776 17.1532L60.6097 17.965H60.1294L60.8236 14.8571H61.4006L62.0429 17.965H61.5631L61.3968 17.1532H60.776ZM61.3449 16.7708L61.2158 16.0545C61.1786 15.8517 61.1372 15.5657 61.0995 15.3501H61.0867C61.0517 15.5855 61.013 15.8204 60.9704 16.0545L60.8317 16.7708H61.3449ZM62.8605 14.8571V15.732C62.8605 16.2916 62.8377 16.7642 62.8105 17.1617H62.8191C62.9168 16.863 63.0788 16.4526 63.185 16.1709L63.6939 14.8571H64.1427V17.965H63.7082V17.099C63.7082 16.4526 63.7211 16.0222 63.7458 15.6688H63.7358C63.6486 15.9966 63.5057 16.3538 63.3937 16.6397L62.8801 17.965H62.4231V14.8571H62.8605ZM63.0516 14.2519C63.0645 14.4048 63.1207 14.5136 63.2784 14.5136C63.4261 14.5136 63.5009 14.4048 63.5138 14.2519H63.8416C63.8002 14.6081 63.6067 14.745 63.2784 14.745C62.9687 14.745 62.751 14.6081 62.7233 14.2519H63.0516ZM65.201 14.8571V16.1424H65.9405V14.8571H66.435V17.965H65.9405V16.5941H65.201V17.965H64.7059V14.8571H65.201Z" fill="white"/>
</svg>
