<svg width="64" height="16" viewBox="0 0 64 16" fill="none" xmlns="http://www.w3.org/2000/svg">
<path d="M38.788 4.552C37.85 4.552 36.94 4.8 36.14 5.242C36.14 2.869 36.167 0.8 36.223 0L31.34 0.938V1.379L31.809 1.434C32.499 1.517 32.747 1.931 32.829 2.841C32.967 4.607 32.967 13.959 32.829 15.448C34.209 15.779 35.589 15.945 36.995 15.972C40.885 15.972 43.23 13.572 43.23 9.766C43.23 6.731 41.326 4.552 38.788 4.552ZM37.106 15.2C36.8279 15.1997 36.5506 15.1719 36.278 15.117C36.195 14.069 36.14 9.737 36.168 5.931C36.5297 5.79803 36.9127 5.73261 37.298 5.738C38.898 5.738 39.809 7.614 39.809 9.931C39.782 12.938 38.678 15.2 37.106 15.2ZM12.938 4.662L12.193 4.855C11.503 2.648 10.455 1.379 8.468 1.379H5.931C5.821 2.814 5.766 5.159 5.793 7.614L7.503 7.559C8.635 7.531 9.103 6.676 9.38 5.434H10.014V10.648H9.38C9.104 9.379 8.635 8.552 7.476 8.497L5.766 8.441C5.793 10.317 5.849 11.89 5.904 12.828C6.014 14.207 6.4 14.814 7.394 14.979L8.249 15.062V15.697H0V15.062L0.69 14.979C1.655 14.841 2.07 14.235 2.18 12.828C2.373 10.538 2.4 5.793 2.18 3.145C2.07 1.765 1.683 1.159 0.69 1.021L0 0.938V0.33H12.883L12.939 4.661L12.938 4.662ZM17.048 4.414C20.718 4.414 22.511 6.897 22.511 10.179C22.511 13.462 20.469 15.972 16.8 15.972C13.13 15.972 11.31 13.49 11.31 10.235C11.337 6.952 13.379 4.414 17.048 4.414ZM16.883 5.131C15.255 5.131 14.813 7.311 14.813 10.207C14.813 13.103 15.531 15.283 17.021 15.283C18.511 15.283 19.09 13.103 19.09 10.207C19.09 7.31 18.345 5.131 16.883 5.131ZM44.139 10.317C44.139 7.283 46.043 4.441 49.822 4.441C52.885 4.441 54.347 6.703 54.374 9.683H47.533C47.45 12.386 48.829 14.373 51.45 14.373C52.581 14.373 53.216 14.097 53.933 13.573L54.236 13.959C53.493 15.007 51.892 16 49.796 16C46.458 15.972 44.139 13.655 44.139 10.317ZM47.533 8.91L50.953 8.828C50.981 7.31 50.733 5.131 49.491 5.131C48.278 5.159 47.561 7.2 47.533 8.911V8.91ZM63.147 7.834L62.595 7.972C62.016 6.042 61.105 5.214 59.782 5.214C58.899 5.214 58.264 5.876 58.264 6.841C58.264 7.807 58.982 8.303 61.051 9.103C63.12 9.903 63.699 10.703 63.699 12.248C63.699 14.566 61.933 15.972 59.009 15.972C57.685 15.972 56.389 15.724 55.147 15.282L55.064 12.082L55.616 11.945C56.416 14.179 57.464 14.979 58.844 14.979C60.223 14.979 60.664 14.152 60.664 13.269C60.664 12.386 60.168 11.889 58.292 11.228C56.416 10.566 55.312 9.848 55.312 7.918C55.312 5.986 56.968 4.414 59.726 4.414C60.996 4.414 62.209 4.634 63.036 4.994L63.147 7.834ZM30.87 7.752C29.38 6.759 27.78 7.2 27.476 7.724C27.366 9.683 27.394 11.669 27.504 13.628C27.587 14.538 27.863 14.952 28.524 15.034L29.408 15.09V15.724H22.621V15.09L23.09 15.034C23.78 14.952 24.028 14.538 24.11 13.628C24.2479 11.5059 24.2479 9.37709 24.11 7.255C24.028 6.345 23.752 5.931 23.09 5.848L22.62 5.793V5.352L27.504 4.414L27.449 6.952C28.579 4.331 30.842 3.972 32.056 4.717L30.87 7.752Z" fill="white"/>
</svg>
