<svg width="51" height="18" viewBox="0 0 51 18" fill="none" xmlns="http://www.w3.org/2000/svg">
<g clip-path="url(#clip0_2_478)">
<path fill-rule="evenodd" clip-rule="evenodd" d="M50.6425 0C50.3705 0.558117 50.1381 1.04994 49.8922 1.5355C48.7601 3.76529 47.6381 5.99954 46.4826 8.21723C46.1987 8.7619 46.1895 9.21794 46.4766 9.77067C47.7833 12.2836 49.0524 14.8152 50.3324 17.3407C50.4294 17.5333 50.513 17.7339 50.6357 18H0V0H50.6425Z" fill="#AD475C"/>
<path d="M9.45671 13.957L7.14182 10.8086H6.69012V13.957H4.13525V4.05H8.12989C9.23089 4.05 10.1154 4.31587 10.7835 4.84758C11.4611 5.37935 11.814 6.20024 11.8422 7.31034C11.8422 9.06413 11.1882 10.1462 9.88015 10.5567L12.6044 13.957H9.45671ZM6.69012 8.65368H8.1722C8.67095 8.65368 9.02386 8.46707 9.23089 8.09393C9.43788 7.71147 9.43788 7.33365 9.23089 6.96051C9.02386 6.57806 8.67095 6.38681 8.1722 6.38681H6.69012V8.65368Z" fill="white"/>
<path d="M20.5863 7.07247C20.5769 7.34301 20.4828 7.63686 20.304 7.95402C20.1346 8.27118 19.8852 8.51373 19.5559 8.68163C20.1675 8.98947 20.5769 9.39996 20.7839 9.91301C20.9909 10.4261 21.0521 10.9205 20.9674 11.3963C20.6945 13.1034 19.5088 13.957 17.4104 13.957H13.3311V4.05H17.3398C18.3184 4.05 19.1089 4.3252 19.7112 4.87557C20.3228 5.41665 20.6145 6.14894 20.5863 7.07247ZM15.8718 7.92603H17.3398C17.7256 7.92603 17.9985 7.78145 18.1585 7.49223C18.3279 7.19375 18.3325 6.8999 18.1726 6.61068C18.0126 6.3122 17.735 6.16293 17.3398 6.16293H15.8718V7.92603ZM15.8718 11.7601H17.3398C17.8197 11.7601 18.1538 11.5922 18.342 11.2563C18.5396 10.9112 18.5396 10.5707 18.342 10.2348C18.1444 9.89901 17.8103 9.73112 17.3398 9.73112H15.8718V11.7601Z" fill="white"/>
<path d="M21.7712 12.6416C21.7712 12.2592 21.9077 11.9327 22.1806 11.6621C22.4535 11.3916 22.7829 11.2563 23.1687 11.2563C23.5545 11.2563 23.8838 11.3916 24.1568 11.6621C24.439 11.9327 24.5802 12.2592 24.5802 12.6416C24.5802 13.0334 24.439 13.3693 24.1568 13.6491C23.8838 13.9197 23.5545 14.0549 23.1687 14.0549C22.7829 14.0549 22.4535 13.9197 22.1806 13.6491C21.9077 13.3693 21.7712 13.0334 21.7712 12.6416Z" fill="white"/>
<path d="M31.1188 13.957L28.8039 10.8086H28.3522V13.957H25.7974V4.05H29.792C30.893 4.05 31.7775 4.31587 32.4456 4.84758C33.1232 5.37935 33.476 6.20024 33.5043 7.31034C33.5043 9.06413 32.8503 10.1462 31.5423 10.5567L34.2665 13.957H31.1188ZM28.3522 8.65368H29.8343C30.3331 8.65368 30.6859 8.46707 30.893 8.09393C31.1 7.71147 31.1 7.33365 30.893 6.96051C30.6859 6.57806 30.3331 6.38681 29.8343 6.38681H28.3522V8.65368Z" fill="white"/>
<path d="M37.4916 4.05V10.6407C37.4916 10.9392 37.5905 11.1957 37.7881 11.4102C37.9857 11.6155 38.2209 11.7414 38.4939 11.7881C38.7762 11.8347 39.0584 11.8347 39.3407 11.7881C39.6231 11.7414 39.863 11.6155 40.0606 11.4102C40.2582 11.1957 40.3571 10.9392 40.3571 10.6407V4.05H42.9119V10.6407C42.9119 11.1444 42.8178 11.6062 42.6296 12.0259C42.4508 12.4364 42.2062 12.7769 41.8956 13.0474C41.5851 13.318 41.2275 13.5512 40.8229 13.7471C40.4276 13.9336 40.0089 14.0456 39.5666 14.0829C39.1337 14.1202 38.6962 14.1202 38.2539 14.0829C37.8116 14.0456 37.3881 13.9336 36.9835 13.7471C36.5883 13.5512 36.2354 13.318 35.9248 13.0474C35.6238 12.7769 35.3838 12.4364 35.205 12.0259C35.0262 11.6062 34.9368 11.1444 34.9368 10.6407V4.05H37.4916Z" fill="white"/>
</g>
<defs>
<clipPath id="clip0_2_478">
<rect width="51" height="18" fill="white"/>
</clipPath>
</defs>
</svg>
