<svg width="60" height="16" viewBox="0 0 60 16" fill="none" xmlns="http://www.w3.org/2000/svg">
<path fill-rule="evenodd" clip-rule="evenodd" d="M0 0V14.9333L14.9333 0H0Z" fill="#92CFAE"/>
<path fill-rule="evenodd" clip-rule="evenodd" d="M1.06665 16H16V1.06667L1.06665 16Z" fill="#2A8288"/>
<path fill-rule="evenodd" clip-rule="evenodd" d="M24.3882 7.65317C26.1246 7.65317 27.0476 6.80287 27.0476 5.21417V5.1244C27.0476 3.42381 26.0805 2.75253 24.3882 2.75253H22.586V7.65317H24.3882ZM19.0476 0H24.4761C28.3002 0 30.4762 1.72297 30.4762 5.10228V5.19153C30.4762 8.57059 28.1686 10.1819 24.5859 10.1819H22.586V16H19.0476V0Z" fill="white"/>
<path fill-rule="evenodd" clip-rule="evenodd" d="M37.5202 13.2475C39.2238 13.2475 40.0864 12.4867 40.0864 11.032V10.9427C40.0864 9.51039 39.2238 8.72723 37.434 8.72723H35.4501V13.2475H37.5202ZM37.6497 16H32V0H42.0486V2.81966H35.4718L35.4501 6.17608H37.7574C41.3154 6.17608 43.4286 7.76505 43.4286 10.9648V11.0546C43.4286 14.1873 41.4664 16 37.6497 16Z" fill="white"/>
<path fill-rule="evenodd" clip-rule="evenodd" d="M46 0.0223449H49.7153V6.9051L55.4486 0H59.3932L52.903 7.57545L59.7143 16H55.3798L49.7153 8.82676V16H46V0.0223449Z" fill="white"/>
</svg>
