<svg width="60" height="17" viewBox="0 0 60 17" fill="none" xmlns="http://www.w3.org/2000/svg">
<g clip-path="url(#clip0_633_617)">
<path fill-rule="evenodd" clip-rule="evenodd" d="M0 0.868164V15.8015L14.9333 0.868164H0Z" fill="#92CFAE"/>
<path fill-rule="evenodd" clip-rule="evenodd" d="M1.06665 16.8682H16V1.93484L1.06665 16.8682Z" fill="#2A8288"/>
<path fill-rule="evenodd" clip-rule="evenodd" d="M24.3882 8.52133C26.1246 8.52133 27.0476 7.67104 27.0476 6.08233V5.99257C27.0476 4.29198 26.0805 3.62069 24.3882 3.62069H22.586V8.52133H24.3882ZM19.0476 0.868164H24.4761C28.3002 0.868164 30.4762 2.59113 30.4762 5.97045V6.0597C30.4762 9.43876 28.1686 11.0501 24.5859 11.0501H22.586V16.8682H19.0476V0.868164Z" fill="white"/>
<path fill-rule="evenodd" clip-rule="evenodd" d="M37.5202 14.1156C39.2238 14.1156 40.0864 13.3548 40.0864 11.9001V11.8109C40.0864 10.3786 39.2238 9.59539 37.434 9.59539H35.4501V14.1156H37.5202ZM37.6497 16.8682H32V0.868164H42.0486V3.68782H35.4718L35.4501 7.04425H37.7574C41.3154 7.04425 43.4286 8.63321 43.4286 11.833V11.9228C43.4286 15.0554 41.4664 16.8682 37.6497 16.8682Z" fill="white"/>
<path fill-rule="evenodd" clip-rule="evenodd" d="M46 0.890509H49.7153V7.77326L55.4486 0.868164H59.3932L52.903 8.44361L59.7143 16.8682H55.3798L49.7153 9.69493V16.8682H46V0.890509Z" fill="white"/>
</g>
<defs>
<clipPath id="clip0_633_617">
<rect width="60" height="16" fill="white" transform="translate(0 0.868164)"/>
</clipPath>
</defs>
</svg>
