<svg width="73" height="13" viewBox="0 0 73 13" fill="none" xmlns="http://www.w3.org/2000/svg">
<path d="M9.30314 2.94503L10.782 1.44748C11.2301 0.992296 11.6782 0.537114 12.1263 0.081932C12.2249 -0.0182081 12.2742 -0.0273117 12.3773 0.081932C14.4357 2.17577 16.4971 4.26506 18.5615 6.34979C18.6645 6.45448 18.6645 6.50455 18.5615 6.6138C16.7958 8.39507 15.0362 10.1764 13.2825 11.9576C12.9733 12.2672 12.6641 12.5767 12.3638 12.8908C12.2742 12.9863 12.2294 12.9772 12.1398 12.8908C11.2435 11.9804 10.3353 11.0579 9.41517 10.1232L9.30762 10.0277C8.98048 9.67262 8.63991 9.32668 8.28589 8.9944C7.87361 8.56653 7.45685 8.14321 7.04009 7.71989C6.62333 7.29657 6.23346 6.90056 5.80774 6.47269C5.9601 6.32248 6.10798 6.19048 6.25587 6.04937L8.29485 3.96919C8.63543 3.64601 8.976 3.30007 9.30314 2.94503ZM9.30314 5.03431L7.90946 6.48634L9.30314 7.94748C9.63027 8.30707 9.97533 8.65301 10.3249 8.98529L12.2563 10.9016C13.6963 9.45413 15.1258 8.01424 16.5449 6.58193C16.639 6.48634 16.5942 6.45448 16.5449 6.3862L14.3042 4.13305L12.2787 2.07563L10.3428 3.99195C9.97981 4.32878 9.64819 4.67472 9.32106 5.03431H9.30314Z" fill="white"/>
<path d="M8.2814 9.0035C8.63542 9.33578 8.976 9.68172 9.30313 10.0368L6.47993 12.909C6.37238 13.0182 6.32308 12.9499 6.25138 12.8771L2.84561 9.42682C1.91351 8.4937 1.01725 7.55602 0.080663 6.62745C-0.0268877 6.51821 -0.0268877 6.46358 0.080663 6.35434L6.25138 0.10469C6.32308 0.0318612 6.37238 -0.0364161 6.47993 0.0728276L9.30313 2.94503C8.976 3.30007 8.63542 3.64601 8.2814 3.97829C7.68539 3.3729 7.0849 2.77206 6.48889 2.15756C6.39926 2.06653 6.35445 2.06653 6.26483 2.15756C4.8816 3.56863 3.4954 4.97362 2.1062 6.37255C2.01657 6.46358 2.01657 6.5091 2.1062 6.60014C3.4954 8.0021 4.8816 9.40709 6.26483 10.8151C6.35445 10.9062 6.39926 10.9062 6.48889 10.8151C7.0849 10.2097 7.68539 9.60434 8.2814 9.0035Z" fill="white"/>
<path d="M48.0707 7.51506C48.2633 6.92332 48.4471 6.37255 48.6263 5.82178C48.8414 5.16177 49.0745 4.5063 49.2716 3.84629C49.303 3.7507 49.3389 3.71429 49.4419 3.71429C49.9214 3.71429 50.3964 3.71429 50.8759 3.71429C51.0014 3.71429 51.0193 3.75981 51.0149 3.8736C51.0149 5.62757 51.0149 7.38305 51.0149 9.14006C51.0149 9.26296 51.0149 9.30848 50.858 9.30392C50.5757 9.30392 50.2889 9.30392 50.0066 9.30392C49.8766 9.30392 49.8497 9.26296 49.8542 9.14006C49.8542 7.95658 49.8542 6.77766 49.8542 5.59874V5.49405H49.8273C49.6794 5.92647 49.5271 6.35889 49.3792 6.79132C49.1043 7.58333 48.8355 8.37535 48.5726 9.16737C48.5367 9.27206 48.4919 9.31303 48.3843 9.30848C48.1558 9.30848 47.9362 9.30848 47.6942 9.30848C47.5912 9.30848 47.5553 9.27206 47.5195 9.17647C47.1161 8.01121 46.7083 6.85049 46.3006 5.68523C46.2886 5.63321 46.2622 5.5858 46.2244 5.54867V6.45903C46.2244 7.3694 46.2244 8.257 46.2244 9.15827C46.2244 9.29482 46.1885 9.33123 46.0541 9.32668C45.7673 9.32668 45.476 9.32668 45.1847 9.32668C45.0727 9.32668 45.0323 9.32668 45.0323 9.18102C45.0323 7.41795 45.0323 5.6564 45.0323 3.89636C45.0323 3.77801 45.0592 3.7416 45.1802 3.7416C45.6702 3.7416 46.1586 3.7416 46.6456 3.7416C46.6883 3.73497 46.7319 3.74553 46.767 3.77104C46.8022 3.79654 46.8261 3.83497 46.8338 3.87815L48.0707 7.51506Z" fill="white"/>
<path d="M61.5144 5.9993C61.5144 6.69573 61.5144 7.39671 61.5144 8.09314C61.5144 8.23425 61.5503 8.26611 61.6847 8.26156C61.8192 8.257 62.0119 8.19328 62.1015 8.26156C62.1911 8.32983 62.1284 8.54377 62.1329 8.68488C62.1329 9.30847 62.1329 9.93663 62.1329 10.5602C62.1329 10.7013 62.0925 10.7286 61.9626 10.7241C61.6578 10.7241 61.3576 10.7241 61.0663 10.7241C60.9677 10.7241 60.9408 10.6968 60.9453 10.6012C60.9453 10.2097 60.9453 9.81828 60.9453 9.42682C60.9453 9.30848 60.9139 9.28572 60.8019 9.28572C59.7384 9.28572 58.6763 9.28572 57.6157 9.28572C57.4903 9.28572 57.4678 9.33123 57.4723 9.44503C57.4723 9.82283 57.4723 10.2006 57.4723 10.583C57.4723 10.6922 57.4723 10.7286 57.3334 10.7241C57.0242 10.7241 56.7195 10.7241 56.4103 10.7241C56.3027 10.7241 56.2848 10.6877 56.2848 10.5875C56.2848 9.85469 56.2848 9.12185 56.2848 8.38446C56.2848 8.2479 56.3386 8.21149 56.4551 8.23424C56.6612 8.27976 56.7688 8.16597 56.8674 8.0021C57.203 7.39979 57.412 6.73333 57.4813 6.04482C57.5582 5.32846 57.5837 4.60737 57.5575 3.88726C57.5575 3.7507 57.5888 3.71429 57.7233 3.71429H61.3486C61.4741 3.71429 61.5055 3.74615 61.5055 3.8736C61.5144 4.57913 61.5144 5.28467 61.5144 5.9993ZM58.0863 8.2388H58.149H60.1701C60.2776 8.2388 60.2776 8.18417 60.2776 8.10679C60.2776 7.02346 60.2776 5.94013 60.2776 4.85679C60.2776 4.74755 60.2507 4.71114 60.1387 4.71569C59.7443 4.71569 59.3545 4.71569 58.9601 4.71569C58.8212 4.71569 58.7809 4.74755 58.7809 4.89321C58.7962 5.66206 58.6996 6.42899 58.4941 7.16912C58.386 7.53358 58.245 7.8871 58.0728 8.22514L58.0863 8.2388Z" fill="white"/>
<path d="M17.7369 12.9681C17.7369 12.3901 17.7369 11.8074 17.7369 11.2248C17.7369 11.1201 17.7997 11.0746 17.8579 11.0154C19.3069 9.54972 20.7543 8.08403 22.2003 6.61835C22.3078 6.5091 22.3078 6.45903 22.2003 6.34979C20.7483 4.88866 19.3054 3.41842 17.8534 1.95728C17.8148 1.92063 17.7841 1.87621 17.7632 1.82684C17.7424 1.77747 17.7319 1.72423 17.7324 1.67052C17.7324 1.1152 17.7324 0.559874 17.7324 0C17.8176 0 17.8445 0.0728292 17.8848 0.113796L24.0645 6.368C24.1407 6.44538 24.181 6.48634 24.0645 6.59104C21.9732 8.69701 19.882 10.8121 17.7907 12.9363C17.7782 12.9558 17.7691 12.9774 17.7638 13L17.7369 12.9681Z" fill="white"/>
<path d="M63.8493 7.52871L65.8166 3.85539C65.8349 3.80923 65.8676 3.77043 65.9097 3.74494C65.9518 3.71946 66.0009 3.70869 66.0496 3.71428C66.4126 3.71428 66.7756 3.71428 67.1341 3.71428C67.2506 3.71428 67.2775 3.74615 67.2775 3.85539C67.2775 5.62757 67.2775 7.39519 67.2775 9.15826C67.2775 9.27206 67.2775 9.30392 67.143 9.30392C66.8293 9.30392 66.5157 9.30392 66.202 9.30392C66.0765 9.30392 66.0541 9.2584 66.0541 9.14916C66.0541 7.98389 66.0541 6.82166 66.0541 5.66246V5.48949H66.0227L65.6642 6.14951C65.122 7.16456 64.5753 8.18417 64.0375 9.19923C64.0237 9.23593 63.9979 9.26675 63.9645 9.28661C63.9311 9.30647 63.8921 9.31418 63.8538 9.30847C63.4729 9.30847 63.0964 9.30847 62.7155 9.30847C62.608 9.30847 62.5856 9.27661 62.5856 9.17647C62.5856 7.40126 62.5856 5.6306 62.5856 3.85539C62.5856 3.74615 62.6214 3.72339 62.72 3.72339C63.0188 3.72339 63.3324 3.72339 63.6611 3.72339C63.7866 3.72339 63.8224 3.7507 63.8224 3.8827C63.8224 5.03886 63.8224 6.19503 63.8224 7.35119V7.52871H63.8493Z" fill="white"/>
<path d="M51.8887 6.5C51.8887 5.62605 51.8887 4.7521 51.8887 3.87815C51.8887 3.75525 51.9156 3.71429 52.0455 3.71429H55.886C55.9935 3.71429 56.0428 3.71429 56.0383 3.85995C56.0249 4.10404 56.0249 4.3487 56.0383 4.59279C56.0383 4.72479 55.9935 4.743 55.8815 4.73845C54.9852 4.73845 54.1338 4.73845 53.2555 4.73845C53.1345 4.73845 53.0941 4.76576 53.0986 4.89776C53.0986 5.18301 53.0986 5.46977 53.0986 5.75805C53.0986 5.89006 53.121 5.93558 53.2599 5.93102C54.0442 5.93102 54.8329 5.93102 55.6171 5.93102C55.7515 5.93102 55.8053 5.95833 55.7963 6.10854C55.7829 6.31619 55.7829 6.5245 55.7963 6.73214C55.7963 6.8778 55.7695 6.92332 55.6126 6.92332C54.8284 6.92332 54.0442 6.92332 53.2599 6.92332C53.1345 6.92332 53.0941 6.92332 53.0986 7.07808C53.0986 7.42402 53.0986 7.77451 53.0986 8.125C53.0986 8.24335 53.13 8.27521 53.2465 8.27521H55.9084C56.0518 8.27521 56.1145 8.30252 56.1011 8.46184C56.1011 8.70308 56.1011 8.94888 56.1011 9.19468C56.1011 9.29027 56.0742 9.31758 55.9801 9.31758C54.6357 9.31758 53.3361 9.31758 52.0142 9.31758C51.8752 9.31758 51.8932 9.24475 51.8932 9.15827L51.8887 6.5Z" fill="white"/>
<path d="M73 9.29937C72.6057 9.29937 72.2158 9.29937 71.8214 9.29937C71.7184 9.29937 71.7049 9.2402 71.6825 9.17192C71.566 8.83508 71.4405 8.49825 71.333 8.15686C71.3016 8.07038 71.2703 8.04307 71.1806 8.04307C70.5801 8.04307 69.9752 8.04307 69.3881 8.04307C69.294 8.04307 69.2671 8.08858 69.2402 8.15686C69.1192 8.5028 68.9938 8.84419 68.8772 9.18557C68.8504 9.2584 68.8279 9.29937 68.7383 9.29482C68.3619 9.29482 67.981 9.29482 67.5822 9.29482C67.7256 8.89426 67.869 8.5119 68.0303 8.12955C68.5411 6.70938 69.058 5.29073 69.5808 3.8736C69.5917 3.81908 69.623 3.771 69.6682 3.73956C69.7134 3.70812 69.7688 3.69579 69.8228 3.70518C70.1454 3.70518 70.4636 3.70518 70.7818 3.70518C70.8624 3.70518 70.9162 3.70518 70.9476 3.80532C71.6258 5.62605 72.3039 7.43616 72.9821 9.23564C72.9821 9.23564 72.9955 9.27206 73 9.29937ZM70.2844 5.11625C70.0469 5.78992 69.8362 6.42717 69.5898 7.06443C69.5629 7.14181 69.5898 7.14181 69.666 7.14181H70.8938C70.9655 7.14181 70.9924 7.14181 70.961 7.05077C70.737 6.41807 70.5174 5.78536 70.2844 5.11625Z" fill="white"/>
<path d="M26.3499 6.52276C26.317 7.15273 26.506 7.77401 26.8832 8.27521C27.1129 8.56739 27.4235 8.78296 27.775 8.89412C28.1264 9.00527 28.5026 9.00691 28.855 8.89881C29.186 8.82029 29.4861 8.64242 29.7163 8.38833C29.9465 8.13424 30.096 7.81569 30.1456 7.47409C30.2307 7.13726 30.2218 7.13726 30.5937 7.13726C30.7057 7.13726 30.7416 7.16457 30.7282 7.28291C30.6987 7.74699 30.5301 8.19078 30.2448 8.55455C29.9596 8.91832 29.5715 9.18461 29.1328 9.31758C28.7944 9.44313 28.4328 9.49064 28.074 9.45667C27.7153 9.4227 27.3685 9.30809 27.0588 9.12117C26.7491 8.93424 26.4842 8.67967 26.2833 8.3759C26.0824 8.07213 25.9506 7.72677 25.8973 7.36485C25.7787 6.90321 25.7573 6.42134 25.8345 5.95073C25.9117 5.48011 26.0858 5.03135 26.3455 4.63376C26.5964 4.25575 26.9491 3.95905 27.3615 3.77907C27.7739 3.59908 28.2286 3.54341 28.6712 3.6187C28.9907 3.64349 29.3012 3.73758 29.5818 3.89462C29.8625 4.05166 30.1066 4.26801 30.2979 4.52906C30.4562 4.75311 30.5648 5.00934 30.6161 5.28011C30.6161 5.3757 30.6161 5.44398 30.4996 5.43032C30.3831 5.41667 30.2262 5.46219 30.1232 5.43032C30.0201 5.39846 30.0336 5.22094 29.9887 5.1117C29.8402 4.76016 29.5822 4.46782 29.2544 4.27953C28.9266 4.09124 28.547 4.0174 28.1738 4.06933C27.7071 4.11986 27.2725 4.33452 26.9452 4.67615C26.6179 5.01778 26.4184 5.4649 26.3813 5.94013C26.3574 6.13335 26.3469 6.32804 26.3499 6.52276Z" fill="white"/>
<path d="M10.3428 3.99195C11.1225 4.78396 11.9023 5.57598 12.6865 6.35889C12.7896 6.46359 12.7896 6.51821 12.6865 6.61835L10.3428 8.98529C9.99324 8.65301 9.64818 8.30707 9.32104 7.94748C9.76917 7.4923 10.2173 7.03712 10.6654 6.58193C10.7551 6.4909 10.7551 6.44538 10.6654 6.35434C10.2173 5.89916 9.76917 5.44398 9.32104 5.01155C9.64818 4.67472 9.97979 4.32878 10.3428 3.99195Z" fill="white"/>
<path d="M44.7097 9.22199L42.6931 4.06933C42.5407 3.68698 42.5407 3.69608 42.1374 3.68698C42.08 3.67706 42.0211 3.68932 41.9722 3.72133C41.9232 3.75334 41.8879 3.80279 41.873 3.85995C41.2755 5.35598 40.678 6.85049 40.0805 8.34349L39.8161 9.0035C39.2291 8.14776 38.6555 7.31933 38.0774 6.4909C38.0191 6.40441 38.0774 6.368 38.1132 6.31793L38.9019 5.17997L39.9281 3.72339C39.7534 3.72339 39.6145 3.72339 39.48 3.72339C39.43 3.71725 39.3793 3.72656 39.3345 3.7501C39.2897 3.77365 39.253 3.81034 39.2291 3.85539C38.9467 4.26506 38.6555 4.67017 38.3687 5.07983C38.1491 5.39391 37.9205 5.71709 37.7234 6.04027C37.2752 5.27101 36.733 4.56548 36.2401 3.83719C36.2132 3.79622 36.1997 3.72794 36.1325 3.72794H35.523C36.1325 4.60644 36.7151 5.45763 37.3156 6.29972C37.3506 6.33627 37.3702 6.38526 37.3702 6.43628C37.3702 6.48729 37.3506 6.53629 37.3156 6.57283C36.9122 7.13726 36.5134 7.71534 36.1146 8.28887C35.9577 8.51646 35.7964 8.74405 35.6261 8.98074C34.9808 7.32843 34.34 5.69888 33.6992 4.06478C33.5513 3.69608 33.5513 3.70518 33.1569 3.69608C33.0971 3.68653 33.036 3.70053 32.986 3.73522C32.9361 3.7699 32.901 3.82266 32.8881 3.88271C32.3279 5.29832 31.7588 6.71394 31.1986 8.125C31.0418 8.51191 30.8939 8.90336 30.7505 9.30848C30.9163 9.30848 31.0597 9.30848 31.1986 9.30848C31.2388 9.314 31.2795 9.30395 31.3128 9.28033C31.346 9.25672 31.3692 9.22126 31.3779 9.18102C31.5616 8.68943 31.7498 8.20693 31.9335 7.71534C31.9379 7.6893 31.9472 7.66439 31.9611 7.64204C31.9749 7.61968 31.993 7.60034 32.0143 7.58511C32.0355 7.56988 32.0595 7.55906 32.0849 7.55329C32.1102 7.54752 32.1365 7.5469 32.1621 7.55147C32.8881 7.55147 33.6095 7.55147 34.3355 7.55147C34.3614 7.54694 34.388 7.54772 34.4136 7.55378C34.4393 7.55984 34.4634 7.57104 34.4847 7.58674C34.506 7.60244 34.524 7.6223 34.5377 7.64517C34.5513 7.66804 34.5603 7.69344 34.5641 7.71989C34.7433 8.20693 34.9315 8.69398 35.1108 9.18558C35.1204 9.22561 35.1449 9.2603 35.1792 9.28237C35.2134 9.30443 35.2548 9.31216 35.2945 9.30392C35.4917 9.30392 35.6933 9.30392 35.8905 9.30392C35.9376 9.30931 35.9852 9.30053 36.0274 9.27868C36.0696 9.25684 36.1046 9.22288 36.128 9.18102C36.4865 8.65301 36.854 8.12955 37.217 7.60609L37.7323 6.84594C38.1222 7.4832 38.5569 8.07038 38.9647 8.66667C39.1081 8.87605 39.2156 9.16737 39.4128 9.26751C39.61 9.36765 39.9192 9.26751 40.1791 9.29937C40.2911 9.29937 40.3315 9.25841 40.3673 9.15827C40.551 8.66212 40.7482 8.17507 40.9319 7.67892C40.9416 7.63591 40.9667 7.59809 41.0023 7.57285C41.038 7.5476 41.0816 7.53674 41.1246 7.54237C41.8641 7.54237 42.599 7.54237 43.3384 7.54237C43.3844 7.53662 43.4308 7.5483 43.4689 7.57518C43.5069 7.60205 43.5339 7.64223 43.5445 7.68803C43.7283 8.18418 43.912 8.67577 44.1047 9.16737C44.1047 9.21744 44.1047 9.29482 44.2078 9.29482C44.3825 9.29482 44.5573 9.29482 44.7455 9.29482L44.7097 9.22199ZM32.1621 7.09174C32.5251 6.14951 32.8791 5.21639 33.2555 4.23775C33.6185 5.21639 33.9636 6.14496 34.3176 7.09174H32.1621ZM43.186 7.09174H41.1426C41.51 6.14041 41.8685 5.20273 42.2405 4.2332C42.59 5.17542 42.9261 6.08123 43.2667 6.96429C43.3025 7.08719 43.2622 7.10084 43.1771 7.10084L43.186 7.09174Z" fill="white"/>
</svg>
