<svg width="50" height="15" viewBox="0 0 50 15" fill="none" xmlns="http://www.w3.org/2000/svg">
<path fill-rule="evenodd" clip-rule="evenodd" d="M46.0023 0.0400026L46.0084 0V0.0400026H46.0023ZM46.0023 0.0400026C45.9207 0.561783 45.7817 0.988936 45.585 1.34001C45.3834 1.70001 45.1415 1.98001 44.8592 2.20001C44.577 2.42001 44.2746 2.60001 43.9318 2.70001C43.5891 2.82001 43.2261 2.90002 42.8632 2.96002L41.2503 3.20001C40.8068 3.26001 40.3834 3.36002 39.9399 3.50002C39.4963 3.64002 39.0931 3.84002 38.7302 4.12002C38.3673 4.40002 38.0649 4.78003 37.8229 5.26003C37.581 5.74003 37.4399 6.38004 37.3996 7.16005H37.4399C37.8834 6.50004 38.4681 5.98 39.1536 5.62003C39.839 5.26002 40.6052 5.08003 41.4117 5.08003C42.2181 5.08003 42.8834 5.20003 43.4076 5.44003C43.9318 5.68003 44.3552 5.92 44.6778 6.20004C45.1617 6.60003 45.5246 7.10005 45.8069 7.70005C46.0891 8.30005 46.2302 9.02005 46.2302 9.88008C46.2302 10.8401 46.0689 11.64 45.7262 12.2801C45.3834 12.9201 44.9802 13.4201 44.456 13.7801C43.952 14.1601 43.3875 14.4001 42.7625 14.5601C42.1374 14.7001 41.5326 14.7801 40.9479 14.7801C40.0608 14.7801 39.3149 14.6401 38.7503 14.3801C38.1858 14.1201 37.7423 13.8601 37.4197 13.5801C37.0769 13.2801 36.8149 12.96 36.5931 12.6C36.3915 12.24 36.2302 11.88 36.1092 11.4801C36.0084 11.1 35.9278 10.7001 35.8875 10.32C35.8471 9.92006 35.8269 9.56006 35.8269 9.18003C35.8269 8.62007 35.8673 8.04003 35.9278 7.44003C35.9882 6.84003 36.1092 6.24002 36.2503 5.66003C36.3915 5.08003 36.5931 4.54002 36.8552 4.02002C37.0971 3.50002 37.3996 3.06002 37.7624 2.68002C38.0649 2.36002 38.3673 2.10001 38.71 1.90001C39.0326 1.70001 39.3753 1.52001 39.6979 1.40001C40.0407 1.28001 40.3632 1.18001 40.6859 1.12001C41.0084 1.06001 41.331 1.00001 41.6536 0.960009L43.2665 0.760007C43.6294 0.720009 43.952 0.660008 44.2947 0.560006C44.6173 0.460006 44.8189 0.300004 44.8996 0.0400026H46.0023ZM39.8592 6.44004C40.1415 6.22 40.5246 6.1 41.0084 6.1C41.4923 6.1 41.8955 6.22006 42.2181 6.48002C42.5205 6.70006 42.7625 7.00006 42.9439 7.38003C43.1254 7.74003 43.2463 8.16003 43.3068 8.62007C43.3673 9.08005 43.4076 9.54004 43.4076 9.98006C43.4076 10.2201 43.3875 10.5401 43.3471 10.9601C43.3068 11.3601 43.2262 11.7801 43.0649 12.18C42.9036 12.5801 42.6617 12.9401 42.3391 13.2401C42.0165 13.5401 41.5528 13.6801 40.9882 13.6801C40.4238 13.6801 40.0003 13.5401 39.6778 13.2401C39.3552 12.9401 39.1334 12.6 38.9721 12.18C38.8108 11.76 38.71 11.34 38.6697 10.92C38.6294 10.4801 38.6092 10.14 38.6092 9.86006C38.6092 9.16007 38.6697 8.60005 38.7907 8.20001C38.9117 7.80003 39.0326 7.46005 39.1738 7.22005C39.335 6.92005 39.577 6.66003 39.8592 6.44004ZM4.51614 14.8001C3.10485 14.8401 1.43146 14.5601 0.141129 13.9401L0.645164 12.6201C1.43146 13.1201 2.62098 13.5001 4.07259 13.5201C5.5242 13.5401 6.85484 12.9601 7.68147 11.7601C8.04438 11.2401 8.30647 10.6401 8.46775 9.9601C8.60892 9.28007 8.68956 8.58009 8.66938 7.84007C8.64921 7.26009 8.58874 6.76006 8.48793 6.30008C8.38711 5.84004 8.24601 5.44005 8.10484 5.10005C7.96374 4.74005 7.78229 4.44005 7.60083 4.20004C7.41938 3.96004 7.23792 3.74005 7.0363 3.56004C6.6331 3.20004 6.18955 2.94004 5.66534 2.74004C4.63711 2.34004 3.5484 2.44004 2.54033 2.90004L2.51173 2.91484C2.7038 3.00776 2.87826 3.11818 3.02106 3.26006C3.18211 3.42007 3.32302 3.60006 3.42367 3.82006C3.52432 4.04006 3.58471 4.26007 3.58471 4.48007C3.58471 4.96007 3.42367 5.38007 3.08145 5.72007C2.73924 6.06008 2.29637 6.24008 1.79311 6.2601C1.30999 6.2601 0.887252 6.10006 0.545038 5.7801C0.182692 5.46007 0.00151739 5.04007 0.00151739 4.56007C-0.00296068 4.44884 0.00252302 4.34157 0.0173036 4.23826L0 4.22005C0.645164 1.50003 4.63711 0.840032 7.05647 1.58004C7.92339 1.84004 8.64921 2.22003 9.27421 2.70004C9.95973 3.24004 10.5444 3.94004 11.0081 4.80005C11.4919 5.66005 11.7339 6.68004 11.754 7.88005C11.754 8.28009 11.7339 8.68007 11.6734 9.10007C11.6129 9.52007 11.5121 9.94008 11.3508 10.3601C11.1896 10.8001 10.9879 11.2201 10.7258 11.6401C10.4637 12.0801 10.1411 12.4801 9.73793 12.8601C9.35485 13.2401 8.97182 13.5401 8.56857 13.7801C8.16537 14.0201 7.74194 14.2201 7.29839 14.3601C6.85484 14.5001 6.41129 14.6201 5.94757 14.6801C5.48388 14.7601 5.00002 14.8001 4.51614 14.8001ZM13.8914 12.5201C13.8914 13.5001 13.3672 13.6601 12.5204 13.6801V14.6001H17.7221V13.7201C16.8753 13.7001 16.3914 13.5401 16.3914 12.5601V11.4601V10.1801H20.2624V10.5801V11.7601V12.5601C20.2624 13.5401 19.7785 13.7001 18.9317 13.7201V14.6001H24.1334V13.7201C23.2866 13.7001 22.7624 13.5401 22.7624 12.5601V11.1201V8.08007V7.12007C22.7624 6.1401 23.2866 5.98006 24.1334 5.9601V5.08008H18.9317V5.9601C19.7785 5.98006 20.2624 6.1401 20.2624 7.12007V7.70011V9.08011H18.8914H18.4479H18.1858H17.7423H16.3713V8.44007V8.40009V7.1001C16.3713 6.1401 16.835 5.98006 17.6616 5.94008H17.7019V5.06007H12.5204V5.94008C13.3672 5.9601 13.8914 6.12008 13.8914 7.1001V7.62009V12.5201ZM29.6376 4.82006C30.3836 4.82006 31.0489 4.92007 31.6134 5.14006C32.178 5.36007 32.6618 5.64007 33.0651 5.9601C33.2465 6.12008 33.428 6.30008 33.6296 6.54008C33.8312 6.76006 34.0126 7.0401 34.1537 7.34011C34.3151 7.66007 34.436 8.00005 34.5368 8.40009C34.6376 8.80007 34.6981 9.24009 34.6981 9.76008C34.6981 10.7401 34.5368 11.5601 34.1941 12.2001C33.8514 12.8401 33.428 13.3401 32.9239 13.7201C32.3997 14.1001 31.8352 14.3601 31.2304 14.5001C30.6054 14.6401 30.0207 14.7201 29.4763 14.7201C28.7707 14.7201 28.1054 14.6201 27.4804 14.4201C26.8554 14.2201 26.311 13.9201 25.8473 13.5201C25.3836 13.1201 25.0005 12.6001 24.7384 11.9801C24.4763 11.3601 24.3352 10.6401 24.3352 9.7801C24.3352 8.88009 24.4763 8.12011 24.7787 7.48007C25.061 6.84008 25.4642 6.34006 25.9481 5.94008C26.432 5.54007 26.9965 5.26007 27.6416 5.06007C28.2666 4.92006 28.932 4.82006 29.6376 4.82006ZM29.4763 5.88008C29.2143 5.88008 28.9723 5.92006 28.7707 6.00008C28.5691 6.08004 28.4078 6.18008 28.2666 6.30008C28.1255 6.42008 28.0045 6.54008 27.9037 6.6801C27.803 6.8001 27.7223 6.94006 27.6618 7.06007C27.5207 7.32009 27.3997 7.66007 27.2787 8.10009C27.1578 8.52009 27.0973 9.10007 27.0973 9.80006C27.0973 10.1601 27.1376 10.5601 27.1981 11.0001C27.2586 11.4401 27.3795 11.8801 27.561 12.2801C27.7424 12.6801 27.9844 13.0201 28.2868 13.3001C28.5893 13.5801 28.9925 13.7201 29.4562 13.7201C29.9401 13.7201 30.3433 13.5801 30.6658 13.3001C30.9884 13.0201 31.2304 12.6801 31.3916 12.2801C31.5731 11.8801 31.6941 11.4601 31.7545 11.0201C31.8151 10.5801 31.8554 10.2001 31.8554 9.86011C31.8554 9.58007 31.8151 9.22007 31.7545 8.78011C31.6941 8.34009 31.5731 7.90007 31.4118 7.48007C31.2505 7.06007 30.9884 6.6801 30.686 6.3801C30.4037 6.0201 29.9804 5.88008 29.4763 5.88008ZM48.3468 11.9C48.5685 11.9 48.7702 11.94 48.9718 12.02C49.1734 12.1 49.3347 12.22 49.496 12.36C49.6371 12.5 49.7581 12.66 49.8589 12.86C49.9597 13.06 50 13.24 50 13.46C50 13.88 49.8387 14.26 49.5162 14.56C49.1935 14.86 48.8105 15 48.3468 15C47.9033 15 47.5403 14.86 47.2177 14.56C46.8952 14.26 46.7541 13.9 46.7541 13.46C46.7541 13.02 46.9153 12.64 47.2177 12.34C47.5202 12.04 47.9033 11.9 48.3468 11.9Z" fill="white"/>
</svg>
