<svg width="36" height="36" viewBox="0 0 36 36" fill="none" xmlns="http://www.w3.org/2000/svg">
    <path d="M35.4155 17.1394C34.8158 7.64539 26.6355 0.435103 17.1395 1.03486C7.64537 1.6345 0.435103 9.81489 1.03486 19.3109C1.63449 28.8049 9.81537 36.0152 19.3109 35.4155C28.805 34.8158 36.0152 26.6355 35.4155 17.1394Z"
          fill="url(#paint0_linear_1_2)"/>
    <path fill-rule="evenodd" clip-rule="evenodd"
          d="M10.053 20.8292L5.0099 16.3825L12.0766 8.35979L18.1115 13.6809L20.0971 15.4306L18.3479 17.4166L12.3126 12.0956L8.74417 16.1471L11.8026 18.8426L10.053 20.8292ZM23.4299 7.64219L31.4498 14.7121L26.1314 20.7508L25.2576 21.7435L23.272 19.9933L24.1468 19.0005L27.7156 14.9484L23.6659 11.378L20.9714 14.4373L18.9863 12.6871L23.4299 7.64219ZM21.5228 21.9799L18.8288 25.0382L15.7719 22.3431L14.0228 24.3291L19.0648 28.7749L23.5075 23.7301L21.5228 21.9799ZM12.0377 22.5794L13.7795 20.5864L12.7945 19.7175L11.0453 21.7041L12.0377 22.5794Z"
          fill="#3F3A40"/>
    <path d="M11.8039 18.8431L10.0548 20.8292L11.0471 21.704L12.7962 19.7175L11.8039 18.8431ZM18.1132 13.6804L20.0989 15.431L20.9732 14.4378L18.988 12.6876L18.1132 13.6804Z"
          fill="#3F3A40"/>
    <defs>
        <linearGradient id="paint0_linear_1_2" x1="5.99162" y1="7.44469" x2="27.5521" y2="36.5153"
                        gradientUnits="userSpaceOnUse">
            <stop offset="0.359" stop-color="#FFC353"/>
            <stop offset="1" stop-color="#FFA600"/>
        </linearGradient>
    </defs>
</svg>
